<svg width="107" height="107" viewBox="0 0 107 107" fill="none" xmlns="http://www.w3.org/2000/svg">
<g clip-path="url(#clip0)">
<path d="M90.544 90.542C111.231 69.857 111.229 36.2 90.546 15.518C69.858 -5.172 36.199 -5.172 15.515 15.513C-5.173 36.198 -5.171 69.858 15.517 90.547C36.199 111.23 69.858 111.23 90.544 90.542ZM21.302 21.3C38.796 3.807 67.261 3.805 84.759 21.302C102.253 38.796 102.251 67.264 84.757 84.757C67.263 102.251 38.797 102.253 21.302 84.759C3.804 67.263 3.806 38.794 21.302 21.3ZM58.857 41.671C58.857 36.873 62.76 32.97 67.56 32.97C72.357 32.97 76.26 36.872 76.26 41.671C76.26 43.052 75.141 44.171 73.76 44.171C72.379 44.171 71.26 43.052 71.26 41.671C71.26 39.63 69.6 37.97 67.56 37.97C65.518 37.97 63.857 39.63 63.857 41.671C63.857 43.052 62.738 44.171 61.357 44.171C59.976 44.171 58.857 43.051 58.857 41.671ZM31.134 41.644C31.134 36.847 35.038 32.943 39.837 32.943C44.634 32.943 48.538 36.846 48.538 41.644C48.538 43.025 47.419 44.144 46.038 44.144C44.657 44.144 43.538 43.025 43.538 41.644C43.538 39.603 41.878 37.943 39.837 37.943C37.795 37.943 36.134 39.603 36.134 41.644C36.134 43.025 35.015 44.144 33.634 44.144C32.253 44.144 31.134 43.024 31.134 41.644ZM30.025 63.994C29.389 62.465 30.114 60.709 31.645 60.073C32.021 59.918 32.411 59.844 32.795 59.844C33.971 59.844 35.087 60.539 35.566 61.694C38.343 68.38 45.221 72.698 53.089 72.698C60.779 72.698 67.617 68.377 70.509 61.687C71.167 60.166 72.933 59.465 74.453 60.124C75.973 60.783 76.673 62.548 76.015 64.068C72.172 72.955 63.172 78.697 53.088 78.697C42.788 78.697 33.735 72.927 30.025 63.994Z" fill="#4CAF50"/>
</g>
<defs>
<clipPath id="clip0">
<rect width="106.059" height="106.059" fill="white"/>
</clipPath>
</defs>
</svg>
