<svg width="106" height="106" viewBox="0 0 106 106" fill="none" xmlns="http://www.w3.org/2000/svg">
<g clip-path="url(#clip0)">
<path d="M90.4956 15.5094C69.8191 -5.16912 36.1789 -5.16912 15.5064 15.5044C-5.17012 36.1779 -5.16812 69.8191 15.5084 90.4966C36.1789 111.169 69.8191 111.169 90.4936 90.4926C111.168 69.8191 111.167 36.1799 90.4956 15.5094ZM84.7099 84.7109C67.2256 102.195 38.7754 102.197 21.2901 84.7129C3.80188 67.2256 3.80388 38.7724 21.2901 21.2882C38.7744 3.80489 67.2236 3.80289 84.7119 21.2902C102.196 38.7744 102.194 67.2276 84.7099 84.7109ZM76.9742 73.9598C77.6318 75.48 76.9322 77.244 75.413 77.9006C73.8929 78.5603 72.1289 77.8587 71.4712 76.3395C68.5798 69.6542 61.7466 65.3336 54.0599 65.3336C46.1963 65.3336 39.3211 69.6502 36.5477 76.3315C36.0689 77.4849 34.9525 78.1815 33.7782 78.1815C33.3944 78.1815 33.0056 78.1075 32.6288 77.9516C31.0997 77.316 30.3751 75.5609 31.0097 74.0328C34.7177 65.1058 43.7666 59.338 54.0599 59.338C64.1383 59.338 73.1333 65.0768 76.9742 73.9598ZM33.2215 38.6495C33.2215 35.2274 35.997 32.4519 39.4191 32.4519C42.8402 32.4519 45.6156 35.2264 45.6156 38.6495C45.6156 42.0736 42.8402 44.848 39.4191 44.848C35.997 44.848 33.2215 42.0736 33.2215 38.6495ZM61.3229 38.6495C61.3229 35.2274 64.1003 32.4519 67.5224 32.4519C70.9435 32.4519 73.719 35.2264 73.719 38.6495C73.719 42.0736 70.9445 44.848 67.5224 44.848C64.1003 44.848 61.3229 42.0736 61.3229 38.6495Z" fill="#F44336"/>
</g>
<defs>
<clipPath id="clip0">
<rect width="106" height="106" fill="white"/>
</clipPath>
</defs>
</svg>
