<svg width="107" height="107" viewBox="0 0 107 107" fill="none" xmlns="http://www.w3.org/2000/svg">
<g clip-path="url(#clip0)">
<path d="M90.545 90.542C111.231 69.857 111.229 36.201 90.547 15.519C69.857 -5.171 36.198 -5.171 15.514 15.513C-5.17299 36.199 -5.17099 69.857 15.516 90.547C36.198 111.23 69.856 111.23 90.545 90.542ZM21.301 21.299C38.793 3.807 67.261 3.805 84.759 21.302C102.253 38.795 102.251 67.264 84.757 84.758C67.263 102.252 38.794 102.253 21.301 84.761C3.80301 67.262 3.80501 38.793 21.301 21.299ZM22.769 39.804C22.769 38.066 24.177 36.658 25.915 36.658L39.288 36.656C39.317 36.656 39.343 36.664 39.37 36.665C40.979 36.647 42.595 37.246 43.823 38.475C46.245 40.897 46.245 44.825 43.825 47.245C41.405 49.666 37.477 49.666 35.054 47.243C33.868 46.056 33.271 44.508 33.249 42.952H25.915C24.176 42.951 22.769 41.543 22.769 39.804ZM63.437 47.338C61.017 44.918 61.017 40.99 63.439 38.568C64.668 37.339 66.281 36.741 67.892 36.758C67.919 36.757 67.945 36.749 67.974 36.749L81.347 36.751C83.085 36.751 84.493 38.159 84.493 39.897C84.493 41.635 83.086 43.043 81.347 43.043H74.013C73.99 44.599 73.394 46.147 72.208 47.334C69.784 49.758 65.856 49.758 63.437 47.338ZM33.901 67.551H72.161C74.082 67.551 75.64 69.109 75.64 71.03C75.64 72.951 74.081 74.509 72.161 74.509H33.901C31.981 74.509 30.422 72.95 30.422 71.03C30.422 69.11 31.981 67.551 33.901 67.551Z" fill="#E18B15"/>
</g>
<defs>
<clipPath id="clip0">
<rect width="106.059" height="106.059" fill="white"/>
</clipPath>
</defs>
</svg>
